<svg width="270" height="256" viewBox="0 0 270 256" fill="none" xmlns="http://www.w3.org/2000/svg">
<path d="M214.467 114.826C214.467 111.413 211.544 108.65 207.934 108.65C204.324 108.65 201.401 111.413 201.401 114.826V126.962H214.524V114.826H214.467Z" fill="#B5FBFF"/>
<path d="M147.477 139.261H118.251C118.022 139.261 117.793 139.207 117.621 139.099H81.0602V144.3H184.267V139.099H148.107C147.935 139.207 147.706 139.261 147.477 139.261Z" fill="black"/>
<path d="M85.129 93.9671L73.6107 104.478L75.3872 106.212L85.9313 96.5677C85.9886 96.4594 86.1032 96.2968 86.2178 96.1885L129.77 56.475L131.775 54.6329C132.291 54.1994 133.036 54.1994 133.552 54.6329L135.615 56.5291L179.109 96.1885C179.224 96.2968 179.281 96.4052 179.396 96.5677L189.94 106.212L191.717 104.478L132.692 50.4611L123.065 59.2381C122.95 59.4007 122.836 59.509 122.664 59.5632L85.4728 93.5878C85.3582 93.7504 85.2436 93.8587 85.129 93.9671Z" fill="#070480"/>
<path d="M240.712 91.7457L206.902 59.7799H146.56L181.459 91.7457H240.712Z" fill="#141414"/>
<path d="M135.099 77.1715C133.724 76.6297 132.176 76.5755 130.801 77.1173C129.426 77.6591 128.28 78.6344 127.707 79.9347C126.446 82.6436 127.764 85.786 130.629 86.9238C133.494 88.1157 136.818 86.8696 138.021 84.1607C139.282 81.5059 137.964 78.3635 135.099 77.1715Z" fill="#B5FBFF"/>
<path d="M57.4508 108.595C53.8405 108.595 50.918 111.359 50.918 114.772V126.908H64.0409V114.772C64.0409 111.413 61.061 108.595 57.4508 108.595Z" fill="#B5FBFF"/>
<path d="M132.864 100.794C125.587 100.794 119.684 106.374 119.684 113.255V136.552H146.044V113.255C146.044 106.428 140.142 100.794 132.864 100.794Z" fill="#1E1E1E"/>
<path d="M118.767 59.7799H58.4823L24.6722 91.7457H83.8684L118.767 59.7799Z" fill="#141414"/>
<path d="M4.61536 145.708H260.769" stroke="#070480" stroke-width="6" stroke-miterlimit="10" stroke-linecap="round" stroke-linejoin="round"/>
<path d="M185.585 137.906H79.7994V145.654H185.585V137.906Z" stroke="#070480" stroke-width="6" stroke-miterlimit="10" stroke-linecap="round" stroke-linejoin="round"/>
<path d="M178.25 97.0553L132.692 55.4998L87.0771 97.0553V137.907H178.25V97.0553Z" stroke="#070480" stroke-width="6" stroke-miterlimit="10" stroke-linecap="round" stroke-linejoin="round"/>
<path d="M189.997 107.945L132.692 55.4997L75.3869 107.945L71.7767 104.424L132.692 48.7273L193.55 104.424L189.997 107.945Z" stroke="#070480" stroke-width="6" stroke-miterlimit="10" stroke-linecap="round" stroke-linejoin="round"/>
<path d="M132.864 99.4392C124.784 99.4392 118.251 105.616 118.251 113.255V137.907H147.477V113.255C147.477 105.67 140.944 99.4392 132.864 99.4392Z" stroke="#070480" stroke-width="6" stroke-miterlimit="10" stroke-linecap="round" stroke-linejoin="round"/>
<path d="M207.934 107.241C203.521 107.241 199.968 110.6 199.968 114.772V128.263H215.956V114.772C215.899 110.654 212.346 107.241 207.934 107.241Z" stroke="#070480" stroke-width="6" stroke-miterlimit="10" stroke-linecap="round" stroke-linejoin="round"/>
<path d="M143.408 58.5338H207.418L243.806 92.9377H180.943" stroke="#070480" stroke-width="6" stroke-miterlimit="10" stroke-linecap="round" stroke-linejoin="round"/>
<path d="M237.617 92.9377V145.708" stroke="#070480" stroke-width="6" stroke-miterlimit="10" stroke-linecap="round" stroke-linejoin="round"/>
<path d="M57.4502 107.241C61.8627 107.241 65.4156 110.6 65.4156 114.772V128.263H49.4275V114.772C49.4848 110.654 53.0377 107.241 57.4502 107.241Z" stroke="#070480" stroke-width="6" stroke-miterlimit="10" stroke-linecap="round" stroke-linejoin="round"/>
<path d="M121.976 58.5338H57.9661L21.5774 92.9377H84.4411" stroke="#070480" stroke-width="6" stroke-miterlimit="10" stroke-linecap="round" stroke-linejoin="round"/>
<path d="M27.7662 92.9377V145.708" stroke="#070480" stroke-width="6" stroke-miterlimit="10" stroke-linecap="round" stroke-linejoin="round"/>
<path d="M132.864 88.7117C136.757 88.7117 139.912 85.7281 139.912 82.0476C139.912 78.3671 136.757 75.3835 132.864 75.3835C128.971 75.3835 125.815 78.3671 125.815 82.0476C125.815 85.7281 128.971 88.7117 132.864 88.7117Z" stroke="#070480" stroke-width="6" stroke-miterlimit="10" stroke-linecap="round" stroke-linejoin="round"/>
</svg>
